<mxfile host="app.diagrams.net" agent="Mozilla/5.0 (Windows NT 10.0; Win64; x64; rv:132.0) Gecko/20100101 Firefox/132.0" version="24.8.3">
  <diagram id="R2lEEEUBdFMjLlhIrx00" name="Page-1">
    <mxGraphModel grid="0" page="0" gridSize="10" guides="1" tooltips="1" connect="1" arrows="1" fold="1" pageScale="1" pageWidth="850" pageHeight="1100" background="#ffffff" math="0" shadow="0" extFonts="Permanent Marker^https://fonts.googleapis.com/css?family=Permanent+Marker">
      <root>
        <mxCell id="0" />
        <mxCell id="1" parent="0" />
        <mxCell id="sMNnUEjaPpUlIWwpW2yE-2" style="rounded=0;orthogonalLoop=1;jettySize=auto;html=1;exitX=0.75;exitY=0;exitDx=0;exitDy=0;entryX=0.5;entryY=1;entryDx=0;entryDy=0;endArrow=none;endFill=0;" edge="1" parent="1" source="Tw8KaSyfvmo2YHTZOB27-3" target="Tw8KaSyfvmo2YHTZOB27-6">
          <mxGeometry relative="1" as="geometry" />
        </mxCell>
        <mxCell id="sMNnUEjaPpUlIWwpW2yE-4" style="rounded=0;orthogonalLoop=1;jettySize=auto;html=1;endArrow=none;endFill=0;" edge="1" parent="1" source="Tw8KaSyfvmo2YHTZOB27-3" target="Tw8KaSyfvmo2YHTZOB27-8">
          <mxGeometry relative="1" as="geometry" />
        </mxCell>
        <mxCell id="Tw8KaSyfvmo2YHTZOB27-3" value="RECINTO" style="rounded=1;arcSize=10;whiteSpace=wrap;html=1;align=center;fillColor=#dae8fc;strokeColor=#6c8ebf;" vertex="1" parent="1">
          <mxGeometry x="94" y="157" width="100" height="40" as="geometry" />
        </mxCell>
        <mxCell id="Tw8KaSyfvmo2YHTZOB27-6" value="nombre" style="ellipse;whiteSpace=wrap;html=1;align=center;fontStyle=4" vertex="1" parent="1">
          <mxGeometry x="140" y="84" width="74" height="36" as="geometry" />
        </mxCell>
        <mxCell id="sMNnUEjaPpUlIWwpW2yE-3" style="rounded=0;orthogonalLoop=1;jettySize=auto;html=1;exitX=0.5;exitY=1;exitDx=0;exitDy=0;entryX=0.5;entryY=0;entryDx=0;entryDy=0;endArrow=none;endFill=0;" edge="1" parent="1" source="Tw8KaSyfvmo2YHTZOB27-7" target="Tw8KaSyfvmo2YHTZOB27-3">
          <mxGeometry relative="1" as="geometry" />
        </mxCell>
        <mxCell id="Tw8KaSyfvmo2YHTZOB27-7" value="&lt;div&gt;metros&lt;/div&gt;&lt;div&gt;escenario&lt;/div&gt;" style="ellipse;whiteSpace=wrap;html=1;align=center;fontStyle=0" vertex="1" parent="1">
          <mxGeometry x="76" y="43" width="100" height="40" as="geometry" />
        </mxCell>
        <mxCell id="Tw8KaSyfvmo2YHTZOB27-8" value="&lt;div&gt;metros&lt;/div&gt;&lt;div&gt;espectadores&lt;br&gt;&lt;/div&gt;" style="ellipse;whiteSpace=wrap;html=1;align=center;fontStyle=0" vertex="1" parent="1">
          <mxGeometry x="-32" y="19" width="110" height="46" as="geometry" />
        </mxCell>
        <mxCell id="sMNnUEjaPpUlIWwpW2yE-5" style="rounded=0;orthogonalLoop=1;jettySize=auto;html=1;endArrow=none;endFill=0;" edge="1" parent="1" source="Tw8KaSyfvmo2YHTZOB27-9" target="Tw8KaSyfvmo2YHTZOB27-3">
          <mxGeometry relative="1" as="geometry" />
        </mxCell>
        <mxCell id="Tw8KaSyfvmo2YHTZOB27-9" value="aforo maximo" style="ellipse;whiteSpace=wrap;html=1;align=center;fontStyle=0" vertex="1" parent="1">
          <mxGeometry x="-56" y="69" width="100" height="40" as="geometry" />
        </mxCell>
        <mxCell id="sMNnUEjaPpUlIWwpW2yE-6" style="rounded=0;orthogonalLoop=1;jettySize=auto;html=1;endArrow=none;endFill=0;" edge="1" parent="1" source="Tw8KaSyfvmo2YHTZOB27-10" target="Tw8KaSyfvmo2YHTZOB27-3">
          <mxGeometry relative="1" as="geometry" />
        </mxCell>
        <mxCell id="Tw8KaSyfvmo2YHTZOB27-10" value="lavabos" style="ellipse;whiteSpace=wrap;html=1;align=center;fontStyle=0" vertex="1" parent="1">
          <mxGeometry x="-54" y="117" width="80" height="35.19" as="geometry" />
        </mxCell>
        <mxCell id="Tw8KaSyfvmo2YHTZOB27-25" value="" style="rounded=0;orthogonalLoop=1;jettySize=auto;html=1;endArrow=none;endFill=0;" edge="1" parent="1" source="Tw8KaSyfvmo2YHTZOB27-11" target="Tw8KaSyfvmo2YHTZOB27-24">
          <mxGeometry relative="1" as="geometry" />
        </mxCell>
        <mxCell id="Tw8KaSyfvmo2YHTZOB27-68" value="1:1" style="edgeLabel;html=1;align=center;verticalAlign=middle;resizable=0;points=[];fontFamily=Helvetica;fontSize=11;fontColor=default;labelBackgroundColor=default;" vertex="1" connectable="0" parent="Tw8KaSyfvmo2YHTZOB27-25">
          <mxGeometry x="-0.688" y="-2" relative="1" as="geometry">
            <mxPoint x="-5" y="-8" as="offset" />
          </mxGeometry>
        </mxCell>
        <mxCell id="Tw8KaSyfvmo2YHTZOB27-11" value="GRUPO" style="rounded=1;arcSize=10;whiteSpace=wrap;html=1;align=center;fillColor=#dae8fc;strokeColor=#6c8ebf;" vertex="1" parent="1">
          <mxGeometry x="489" y="157" width="100" height="40" as="geometry" />
        </mxCell>
        <mxCell id="sMNnUEjaPpUlIWwpW2yE-7" style="rounded=0;orthogonalLoop=1;jettySize=auto;html=1;endArrow=none;endFill=0;" edge="1" parent="1" source="Tw8KaSyfvmo2YHTZOB27-12" target="Tw8KaSyfvmo2YHTZOB27-3">
          <mxGeometry relative="1" as="geometry" />
        </mxCell>
        <mxCell id="Tw8KaSyfvmo2YHTZOB27-12" value="&lt;div&gt;escenario&lt;/div&gt;&lt;div&gt;&lt;span style=&quot;background-color: initial;&quot;&gt;cubierto&lt;/span&gt;&lt;/div&gt;" style="ellipse;whiteSpace=wrap;html=1;align=center;fontStyle=0" vertex="1" parent="1">
          <mxGeometry x="-43" y="157" width="100" height="40" as="geometry" />
        </mxCell>
        <mxCell id="Tw8KaSyfvmo2YHTZOB27-27" value="" style="edgeStyle=none;shape=connector;rounded=0;orthogonalLoop=1;jettySize=auto;html=1;strokeColor=default;align=center;verticalAlign=middle;fontFamily=Helvetica;fontSize=11;fontColor=default;labelBackgroundColor=default;endArrow=none;endFill=0;" edge="1" parent="1" source="Tw8KaSyfvmo2YHTZOB27-24" target="Tw8KaSyfvmo2YHTZOB27-3">
          <mxGeometry relative="1" as="geometry" />
        </mxCell>
        <mxCell id="Tw8KaSyfvmo2YHTZOB27-67" value="0:1" style="edgeLabel;html=1;align=center;verticalAlign=middle;resizable=0;points=[];fontFamily=Helvetica;fontSize=11;fontColor=default;labelBackgroundColor=default;" vertex="1" connectable="0" parent="Tw8KaSyfvmo2YHTZOB27-27">
          <mxGeometry x="0.6017" relative="1" as="geometry">
            <mxPoint y="-10" as="offset" />
          </mxGeometry>
        </mxCell>
        <mxCell id="Tw8KaSyfvmo2YHTZOB27-24" value="&lt;div&gt;organiza&lt;/div&gt;&lt;div&gt;concierto&lt;br&gt;&lt;/div&gt;" style="shape=associativeEntity;whiteSpace=wrap;html=1;align=center;rounded=1;" vertex="1" parent="1">
          <mxGeometry x="271" y="147" width="140" height="60" as="geometry" />
        </mxCell>
        <mxCell id="Tw8KaSyfvmo2YHTZOB27-28" value="substituir" style="shape=rhombus;perimeter=rhombusPerimeter;whiteSpace=wrap;html=1;align=center;fontFamily=Helvetica;fontSize=11;labelBackgroundColor=none;fillColor=#f8cecc;strokeColor=#b85450;" vertex="1" parent="1">
          <mxGeometry x="668" y="147" width="120" height="60" as="geometry" />
        </mxCell>
        <mxCell id="Tw8KaSyfvmo2YHTZOB27-29" style="edgeStyle=orthogonalEdgeStyle;shape=connector;rounded=0;orthogonalLoop=1;jettySize=auto;html=1;strokeColor=default;align=center;verticalAlign=middle;fontFamily=Helvetica;fontSize=11;fontColor=default;labelBackgroundColor=default;endArrow=none;endFill=0;" edge="1" parent="1" source="Tw8KaSyfvmo2YHTZOB27-28" target="Tw8KaSyfvmo2YHTZOB27-11">
          <mxGeometry relative="1" as="geometry">
            <Array as="points">
              <mxPoint x="728" y="97" />
              <mxPoint x="539" y="97" />
            </Array>
          </mxGeometry>
        </mxCell>
        <mxCell id="Tw8KaSyfvmo2YHTZOB27-82" value="substituido" style="edgeLabel;html=1;align=center;verticalAlign=middle;resizable=0;points=[];fontFamily=Helvetica;fontSize=11;fontColor=default;labelBackgroundColor=default;" vertex="1" connectable="0" parent="Tw8KaSyfvmo2YHTZOB27-29">
          <mxGeometry x="0.8172" y="4" relative="1" as="geometry">
            <mxPoint x="30" y="-24" as="offset" />
          </mxGeometry>
        </mxCell>
        <mxCell id="Tw8KaSyfvmo2YHTZOB27-83" value="0:N" style="edgeLabel;html=1;align=center;verticalAlign=middle;resizable=0;points=[];fontFamily=Helvetica;fontSize=11;fontColor=default;labelBackgroundColor=default;" vertex="1" connectable="0" parent="Tw8KaSyfvmo2YHTZOB27-29">
          <mxGeometry x="0.9287" y="3" relative="1" as="geometry">
            <mxPoint x="10" as="offset" />
          </mxGeometry>
        </mxCell>
        <mxCell id="Tw8KaSyfvmo2YHTZOB27-30" value="" style="edgeStyle=none;shape=connector;rounded=0;orthogonalLoop=1;jettySize=auto;html=1;strokeColor=default;align=center;verticalAlign=middle;fontFamily=Helvetica;fontSize=11;fontColor=default;labelBackgroundColor=default;endArrow=none;endFill=0;" edge="1" parent="1" source="Tw8KaSyfvmo2YHTZOB27-28" target="Tw8KaSyfvmo2YHTZOB27-11">
          <mxGeometry relative="1" as="geometry" />
        </mxCell>
        <mxCell id="Tw8KaSyfvmo2YHTZOB27-80" value="substituto" style="edgeLabel;html=1;align=center;verticalAlign=middle;resizable=0;points=[];fontFamily=Helvetica;fontSize=11;fontColor=default;labelBackgroundColor=default;" vertex="1" connectable="0" parent="Tw8KaSyfvmo2YHTZOB27-30">
          <mxGeometry x="0.0975" y="-3" relative="1" as="geometry">
            <mxPoint x="8" y="-6" as="offset" />
          </mxGeometry>
        </mxCell>
        <mxCell id="Tw8KaSyfvmo2YHTZOB27-84" value="0:1" style="edgeLabel;html=1;align=center;verticalAlign=middle;resizable=0;points=[];fontFamily=Helvetica;fontSize=11;fontColor=default;labelBackgroundColor=default;" vertex="1" connectable="0" parent="Tw8KaSyfvmo2YHTZOB27-30">
          <mxGeometry x="0.6962" relative="1" as="geometry">
            <mxPoint x="-1" y="11" as="offset" />
          </mxGeometry>
        </mxCell>
        <mxCell id="Tw8KaSyfvmo2YHTZOB27-49" style="edgeStyle=none;shape=connector;rounded=0;orthogonalLoop=1;jettySize=auto;html=1;strokeColor=default;align=center;verticalAlign=middle;fontFamily=Helvetica;fontSize=11;fontColor=default;labelBackgroundColor=default;endArrow=none;endFill=0;" edge="1" parent="1" source="Tw8KaSyfvmo2YHTZOB27-31" target="Tw8KaSyfvmo2YHTZOB27-48">
          <mxGeometry relative="1" as="geometry" />
        </mxCell>
        <mxCell id="Tw8KaSyfvmo2YHTZOB27-65" value="0:N" style="edgeLabel;html=1;align=center;verticalAlign=middle;resizable=0;points=[];fontFamily=Helvetica;fontSize=11;fontColor=default;labelBackgroundColor=default;" vertex="1" connectable="0" parent="Tw8KaSyfvmo2YHTZOB27-49">
          <mxGeometry x="-0.795" relative="1" as="geometry">
            <mxPoint x="-14" y="-3" as="offset" />
          </mxGeometry>
        </mxCell>
        <mxCell id="Tw8KaSyfvmo2YHTZOB27-31" value="PERSONA" style="rounded=1;arcSize=10;whiteSpace=wrap;html=1;align=center;fillColor=#dae8fc;strokeColor=#6c8ebf;" vertex="1" parent="1">
          <mxGeometry x="128" y="345" width="100" height="40" as="geometry" />
        </mxCell>
        <mxCell id="Tw8KaSyfvmo2YHTZOB27-32" value="CALLE" style="rounded=1;arcSize=10;whiteSpace=wrap;html=1;align=center;fillColor=#dae8fc;strokeColor=#6c8ebf;" vertex="1" parent="1">
          <mxGeometry x="789" y="437.5" width="100" height="40" as="geometry" />
        </mxCell>
        <mxCell id="Tw8KaSyfvmo2YHTZOB27-37" value="PARCELA" style="shape=ext;margin=3;double=1;whiteSpace=wrap;html=1;align=center;fontFamily=Helvetica;fontSize=11;labelBackgroundColor=none;rounded=1;fillColor=#dae8fc;strokeColor=#6c8ebf;" vertex="1" parent="1">
          <mxGeometry x="489" y="437.5" width="100" height="40" as="geometry" />
        </mxCell>
        <mxCell id="Tw8KaSyfvmo2YHTZOB27-39" value="" style="edgeStyle=none;shape=connector;rounded=0;orthogonalLoop=1;jettySize=auto;html=1;strokeColor=default;align=center;verticalAlign=middle;fontFamily=Helvetica;fontSize=11;fontColor=default;labelBackgroundColor=default;endArrow=none;endFill=0;" edge="1" parent="1" source="Tw8KaSyfvmo2YHTZOB27-38" target="Tw8KaSyfvmo2YHTZOB27-32">
          <mxGeometry relative="1" as="geometry" />
        </mxCell>
        <mxCell id="Tw8KaSyfvmo2YHTZOB27-61" value="1:1" style="edgeLabel;html=1;align=center;verticalAlign=middle;resizable=0;points=[];fontFamily=Helvetica;fontSize=11;fontColor=default;labelBackgroundColor=default;" vertex="1" connectable="0" parent="Tw8KaSyfvmo2YHTZOB27-39">
          <mxGeometry x="0.6241" y="2" relative="1" as="geometry">
            <mxPoint x="-2" y="-8" as="offset" />
          </mxGeometry>
        </mxCell>
        <mxCell id="Tw8KaSyfvmo2YHTZOB27-40" value="" style="edgeStyle=none;shape=connector;rounded=0;orthogonalLoop=1;jettySize=auto;html=1;strokeColor=default;align=center;verticalAlign=middle;fontFamily=Helvetica;fontSize=11;fontColor=default;labelBackgroundColor=default;endArrow=none;endFill=0;" edge="1" parent="1" source="Tw8KaSyfvmo2YHTZOB27-38" target="Tw8KaSyfvmo2YHTZOB27-37">
          <mxGeometry relative="1" as="geometry" />
        </mxCell>
        <mxCell id="Tw8KaSyfvmo2YHTZOB27-62" value="0:N" style="edgeLabel;html=1;align=center;verticalAlign=middle;resizable=0;points=[];fontFamily=Helvetica;fontSize=11;fontColor=default;labelBackgroundColor=default;" vertex="1" connectable="0" parent="Tw8KaSyfvmo2YHTZOB27-40">
          <mxGeometry x="0.5374" y="-2" relative="1" as="geometry">
            <mxPoint x="1" y="-7" as="offset" />
          </mxGeometry>
        </mxCell>
        <mxCell id="Tw8KaSyfvmo2YHTZOB27-38" value="tener" style="shape=rhombus;double=1;perimeter=rhombusPerimeter;whiteSpace=wrap;html=1;align=center;fontFamily=Helvetica;fontSize=11;labelBackgroundColor=none;fillColor=#f8cecc;strokeColor=#b85450;rounded=0;" vertex="1" parent="1">
          <mxGeometry x="637" y="431" width="101" height="53" as="geometry" />
        </mxCell>
        <mxCell id="Tw8KaSyfvmo2YHTZOB27-45" style="edgeStyle=none;shape=connector;rounded=0;orthogonalLoop=1;jettySize=auto;html=1;strokeColor=default;align=center;verticalAlign=middle;fontFamily=Helvetica;fontSize=11;fontColor=default;labelBackgroundColor=default;endArrow=none;endFill=0;" edge="1" parent="1" source="Tw8KaSyfvmo2YHTZOB27-43" target="Tw8KaSyfvmo2YHTZOB27-3">
          <mxGeometry relative="1" as="geometry">
            <Array as="points">
              <mxPoint x="18" y="238" />
            </Array>
          </mxGeometry>
        </mxCell>
        <mxCell id="GNrPG53P7MBCp1ATSE61-28" value="0:1" style="edgeLabel;html=1;align=center;verticalAlign=middle;resizable=0;points=[];fontFamily=Helvetica;fontSize=11;fontColor=default;labelBackgroundColor=default;" connectable="0" vertex="1" parent="Tw8KaSyfvmo2YHTZOB27-45">
          <mxGeometry x="0.7573" y="-1" relative="1" as="geometry">
            <mxPoint x="-11" y="-9" as="offset" />
          </mxGeometry>
        </mxCell>
        <mxCell id="GNrPG53P7MBCp1ATSE61-3" value="" style="edgeStyle=none;shape=connector;rounded=0;orthogonalLoop=1;jettySize=auto;html=1;strokeColor=default;align=center;verticalAlign=middle;fontFamily=Helvetica;fontSize=11;fontColor=default;labelBackgroundColor=default;endArrow=none;endFill=0;" edge="1" parent="1" source="Tw8KaSyfvmo2YHTZOB27-43" target="GNrPG53P7MBCp1ATSE61-1">
          <mxGeometry relative="1" as="geometry">
            <mxPoint x="-93" y="305" as="sourcePoint" />
          </mxGeometry>
        </mxCell>
        <mxCell id="GNrPG53P7MBCp1ATSE61-29" value="0:N" style="edgeLabel;html=1;align=center;verticalAlign=middle;resizable=0;points=[];fontFamily=Helvetica;fontSize=11;fontColor=default;labelBackgroundColor=default;" connectable="0" vertex="1" parent="GNrPG53P7MBCp1ATSE61-3">
          <mxGeometry x="-0.1667" y="2" relative="1" as="geometry">
            <mxPoint x="-15" y="-12" as="offset" />
          </mxGeometry>
        </mxCell>
        <mxCell id="Tw8KaSyfvmo2YHTZOB27-43" value="acceder" style="shape=rhombus;perimeter=rhombusPerimeter;whiteSpace=wrap;html=1;align=center;fontFamily=Helvetica;fontSize=11;labelBackgroundColor=none;fillColor=#f8cecc;strokeColor=#b85450;" vertex="1" parent="1">
          <mxGeometry x="-61" y="286.5" width="105" height="37" as="geometry" />
        </mxCell>
        <mxCell id="Tw8KaSyfvmo2YHTZOB27-50" style="edgeStyle=none;shape=connector;rounded=0;orthogonalLoop=1;jettySize=auto;html=1;strokeColor=default;align=center;verticalAlign=middle;fontFamily=Helvetica;fontSize=11;fontColor=default;labelBackgroundColor=default;endArrow=none;endFill=0;" edge="1" parent="1" source="Tw8KaSyfvmo2YHTZOB27-48" target="Tw8KaSyfvmo2YHTZOB27-24">
          <mxGeometry relative="1" as="geometry" />
        </mxCell>
        <mxCell id="Tw8KaSyfvmo2YHTZOB27-66" value="1:N" style="edgeLabel;html=1;align=center;verticalAlign=middle;resizable=0;points=[];fontFamily=Helvetica;fontSize=11;fontColor=default;labelBackgroundColor=none;" vertex="1" connectable="0" parent="Tw8KaSyfvmo2YHTZOB27-50">
          <mxGeometry x="0.6407" y="-2" relative="1" as="geometry">
            <mxPoint x="13" y="5" as="offset" />
          </mxGeometry>
        </mxCell>
        <mxCell id="Tw8KaSyfvmo2YHTZOB27-48" value="asistir" style="shape=rhombus;perimeter=rhombusPerimeter;whiteSpace=wrap;html=1;align=center;fontFamily=Helvetica;fontSize=11;labelBackgroundColor=none;fillColor=#f8cecc;strokeColor=#b85450;" vertex="1" parent="1">
          <mxGeometry x="128" y="228" width="108" height="41" as="geometry" />
        </mxCell>
        <mxCell id="Tw8KaSyfvmo2YHTZOB27-52" value="" style="edgeStyle=none;shape=connector;rounded=0;orthogonalLoop=1;jettySize=auto;html=1;strokeColor=default;align=center;verticalAlign=middle;fontFamily=Helvetica;fontSize=11;fontColor=default;labelBackgroundColor=default;endArrow=none;endFill=0;" edge="1" parent="1" source="Tw8KaSyfvmo2YHTZOB27-71" target="Tw8KaSyfvmo2YHTZOB27-37">
          <mxGeometry relative="1" as="geometry">
            <mxPoint x="447" y="457.5" as="sourcePoint" />
          </mxGeometry>
        </mxCell>
        <mxCell id="Tw8KaSyfvmo2YHTZOB27-63" value="0:1" style="edgeLabel;html=1;align=center;verticalAlign=middle;resizable=0;points=[];fontFamily=Helvetica;fontSize=11;fontColor=default;labelBackgroundColor=default;" vertex="1" connectable="0" parent="Tw8KaSyfvmo2YHTZOB27-52">
          <mxGeometry x="0.445" y="2" relative="1" as="geometry">
            <mxPoint x="-3" y="-7" as="offset" />
          </mxGeometry>
        </mxCell>
        <mxCell id="Tw8KaSyfvmo2YHTZOB27-59" style="edgeStyle=none;shape=connector;rounded=0;orthogonalLoop=1;jettySize=auto;html=1;strokeColor=default;align=center;verticalAlign=middle;fontFamily=Helvetica;fontSize=11;fontColor=default;labelBackgroundColor=default;endArrow=none;endFill=0;" edge="1" parent="1" source="Tw8KaSyfvmo2YHTZOB27-55" target="Tw8KaSyfvmo2YHTZOB27-24">
          <mxGeometry relative="1" as="geometry" />
        </mxCell>
        <mxCell id="Tw8KaSyfvmo2YHTZOB27-55" value="precio" style="ellipse;whiteSpace=wrap;html=1;fontFamily=Helvetica;fontSize=11;fontColor=default;labelBackgroundColor=default;" vertex="1" parent="1">
          <mxGeometry x="368" y="224" width="64" height="28" as="geometry" />
        </mxCell>
        <mxCell id="Tw8KaSyfvmo2YHTZOB27-58" style="edgeStyle=none;shape=connector;rounded=0;orthogonalLoop=1;jettySize=auto;html=1;strokeColor=default;align=center;verticalAlign=middle;fontFamily=Helvetica;fontSize=11;fontColor=default;labelBackgroundColor=default;endArrow=none;endFill=0;" edge="1" parent="1" source="Tw8KaSyfvmo2YHTZOB27-57" target="Tw8KaSyfvmo2YHTZOB27-24">
          <mxGeometry relative="1" as="geometry" />
        </mxCell>
        <mxCell id="Tw8KaSyfvmo2YHTZOB27-57" value="hora fin" style="ellipse;whiteSpace=wrap;html=1;fontFamily=Helvetica;fontSize=11;fontColor=default;labelBackgroundColor=default;" vertex="1" parent="1">
          <mxGeometry x="298" y="224" width="57" height="28" as="geometry" />
        </mxCell>
        <mxCell id="Tw8KaSyfvmo2YHTZOB27-77" style="edgeStyle=none;shape=connector;rounded=0;orthogonalLoop=1;jettySize=auto;html=1;strokeColor=default;align=center;verticalAlign=middle;fontFamily=Helvetica;fontSize=11;fontColor=default;labelBackgroundColor=default;endArrow=none;endFill=0;" edge="1" parent="1" source="Tw8KaSyfvmo2YHTZOB27-69">
          <mxGeometry relative="1" as="geometry">
            <mxPoint x="109" y="416.3333333333335" as="targetPoint" />
          </mxGeometry>
        </mxCell>
        <mxCell id="Tw8KaSyfvmo2YHTZOB27-79" style="edgeStyle=none;shape=connector;rounded=0;orthogonalLoop=1;jettySize=auto;html=1;strokeColor=default;align=center;verticalAlign=middle;fontFamily=Helvetica;fontSize=11;fontColor=default;labelBackgroundColor=default;endArrow=none;endFill=0;" edge="1" parent="1" source="Tw8KaSyfvmo2YHTZOB27-69" target="Tw8KaSyfvmo2YHTZOB27-43">
          <mxGeometry relative="1" as="geometry">
            <Array as="points">
              <mxPoint x="-8" y="455" />
            </Array>
          </mxGeometry>
        </mxCell>
        <mxCell id="GNrPG53P7MBCp1ATSE61-30" value="0:N" style="edgeLabel;html=1;align=center;verticalAlign=middle;resizable=0;points=[];fontFamily=Helvetica;fontSize=11;fontColor=default;labelBackgroundColor=default;" connectable="0" vertex="1" parent="Tw8KaSyfvmo2YHTZOB27-79">
          <mxGeometry x="-0.6975" y="-1" relative="1" as="geometry">
            <mxPoint x="13" y="-7" as="offset" />
          </mxGeometry>
        </mxCell>
        <mxCell id="Tw8KaSyfvmo2YHTZOB27-95" style="edgeStyle=none;shape=connector;rounded=0;orthogonalLoop=1;jettySize=auto;html=1;strokeColor=default;align=center;verticalAlign=middle;fontFamily=Helvetica;fontSize=11;fontColor=default;labelBackgroundColor=default;endArrow=none;endFill=0;" edge="1" parent="1" source="9-Ztib7f6e9Ifwx9d5N6-15" target="Tw8KaSyfvmo2YHTZOB27-11">
          <mxGeometry relative="1" as="geometry" />
        </mxCell>
        <mxCell id="9-Ztib7f6e9Ifwx9d5N6-15" value="nombre" style="ellipse;whiteSpace=wrap;html=1;align=center;fontStyle=4" vertex="1" parent="1">
          <mxGeometry x="468" y="222" width="72" height="26" as="geometry" />
        </mxCell>
        <mxCell id="Tw8KaSyfvmo2YHTZOB27-94" style="edgeStyle=none;shape=connector;rounded=0;orthogonalLoop=1;jettySize=auto;html=1;strokeColor=default;align=center;verticalAlign=middle;fontFamily=Helvetica;fontSize=11;fontColor=default;labelBackgroundColor=default;endArrow=none;endFill=0;" edge="1" parent="1" source="9-Ztib7f6e9Ifwx9d5N6-16" target="Tw8KaSyfvmo2YHTZOB27-11">
          <mxGeometry relative="1" as="geometry" />
        </mxCell>
        <mxCell id="9-Ztib7f6e9Ifwx9d5N6-16" value="pais" style="ellipse;whiteSpace=wrap;html=1;align=center;fontStyle=0" vertex="1" parent="1">
          <mxGeometry x="588" y="261" width="63" height="27" as="geometry" />
        </mxCell>
        <mxCell id="Tw8KaSyfvmo2YHTZOB27-96" style="edgeStyle=none;shape=connector;rounded=0;orthogonalLoop=1;jettySize=auto;html=1;strokeColor=default;align=center;verticalAlign=middle;fontFamily=Helvetica;fontSize=11;fontColor=default;labelBackgroundColor=default;endArrow=none;endFill=0;" edge="1" parent="1" source="9-Ztib7f6e9Ifwx9d5N6-17" target="Tw8KaSyfvmo2YHTZOB27-11">
          <mxGeometry relative="1" as="geometry" />
        </mxCell>
        <mxCell id="9-Ztib7f6e9Ifwx9d5N6-17" value="integrantes" style="ellipse;whiteSpace=wrap;html=1;align=center;fontStyle=0" vertex="1" parent="1">
          <mxGeometry x="605" y="225" width="89.5" height="32" as="geometry" />
        </mxCell>
        <mxCell id="Tw8KaSyfvmo2YHTZOB27-93" style="edgeStyle=none;shape=connector;rounded=0;orthogonalLoop=1;jettySize=auto;html=1;strokeColor=default;align=center;verticalAlign=middle;fontFamily=Helvetica;fontSize=11;fontColor=default;labelBackgroundColor=default;endArrow=none;endFill=0;" edge="1" parent="1" source="9-Ztib7f6e9Ifwx9d5N6-18" target="Tw8KaSyfvmo2YHTZOB27-11">
          <mxGeometry relative="1" as="geometry" />
        </mxCell>
        <mxCell id="9-Ztib7f6e9Ifwx9d5N6-18" value="precio" style="ellipse;whiteSpace=wrap;html=1;align=center;fontStyle=0" vertex="1" parent="1">
          <mxGeometry x="519" y="248" width="65" height="30" as="geometry" />
        </mxCell>
        <mxCell id="Tw8KaSyfvmo2YHTZOB27-75" value="" style="triangle;whiteSpace=wrap;html=1;fontFamily=Helvetica;fontSize=11;fontColor=default;labelBackgroundColor=default;direction=north;" vertex="1" parent="1">
          <mxGeometry x="165.5" y="385" width="25" height="21" as="geometry" />
        </mxCell>
        <mxCell id="Tw8KaSyfvmo2YHTZOB27-69" value="ASISTENTE" style="rounded=1;arcSize=10;whiteSpace=wrap;html=1;align=center;fillColor=#EDF2FC;strokeColor=#6c8ebf;" vertex="1" parent="1">
          <mxGeometry x="59" y="438" width="100" height="40" as="geometry" />
        </mxCell>
        <mxCell id="Tw8KaSyfvmo2YHTZOB27-78" style="edgeStyle=none;shape=connector;rounded=0;orthogonalLoop=1;jettySize=auto;html=1;strokeColor=default;align=center;verticalAlign=middle;fontFamily=Helvetica;fontSize=11;fontColor=default;labelBackgroundColor=default;endArrow=none;endFill=0;" edge="1" parent="1" source="Tw8KaSyfvmo2YHTZOB27-70">
          <mxGeometry relative="1" as="geometry">
            <mxPoint x="252" y="417.16666666666674" as="targetPoint" />
          </mxGeometry>
        </mxCell>
        <mxCell id="Tw8KaSyfvmo2YHTZOB27-70" value="RESPONSABLE" style="rounded=1;arcSize=10;whiteSpace=wrap;html=1;align=center;fillColor=#EDF2FC;strokeColor=#6c8ebf;" vertex="1" parent="1">
          <mxGeometry x="202" y="438" width="100" height="40" as="geometry" />
        </mxCell>
        <mxCell id="Tw8KaSyfvmo2YHTZOB27-72" style="edgeStyle=none;shape=connector;rounded=0;orthogonalLoop=1;jettySize=auto;html=1;strokeColor=default;align=center;verticalAlign=middle;fontFamily=Helvetica;fontSize=11;fontColor=default;labelBackgroundColor=default;endArrow=none;endFill=0;" edge="1" parent="1" source="Tw8KaSyfvmo2YHTZOB27-71" target="Tw8KaSyfvmo2YHTZOB27-70">
          <mxGeometry relative="1" as="geometry">
            <mxPoint x="351" y="518.9831932773109" as="targetPoint" />
          </mxGeometry>
        </mxCell>
        <mxCell id="Tw8KaSyfvmo2YHTZOB27-73" value="0:1" style="edgeLabel;html=1;align=center;verticalAlign=middle;resizable=0;points=[];fontFamily=Helvetica;fontSize=11;fontColor=default;labelBackgroundColor=default;" vertex="1" connectable="0" parent="Tw8KaSyfvmo2YHTZOB27-72">
          <mxGeometry x="0.701" y="1" relative="1" as="geometry">
            <mxPoint x="7" y="-11" as="offset" />
          </mxGeometry>
        </mxCell>
        <mxCell id="Tw8KaSyfvmo2YHTZOB27-71" value="alquilar" style="shape=rhombus;perimeter=rhombusPerimeter;whiteSpace=wrap;html=1;align=center;fontFamily=Helvetica;fontSize=11;labelBackgroundColor=none;fillColor=#f8cecc;strokeColor=#b85450;" vertex="1" parent="1">
          <mxGeometry x="344" y="436.5" width="108" height="41" as="geometry" />
        </mxCell>
        <mxCell id="Tw8KaSyfvmo2YHTZOB27-74" value="" style="endArrow=none;html=1;rounded=0;strokeColor=default;align=center;verticalAlign=middle;fontFamily=Helvetica;fontSize=11;fontColor=default;labelBackgroundColor=default;" edge="1" parent="1">
          <mxGeometry width="50" height="50" relative="1" as="geometry">
            <mxPoint x="110" y="417.08" as="sourcePoint" />
            <mxPoint x="252" y="417.08" as="targetPoint" />
          </mxGeometry>
        </mxCell>
        <mxCell id="Tw8KaSyfvmo2YHTZOB27-76" value="" style="edgeStyle=none;shape=connector;rounded=0;orthogonalLoop=1;jettySize=auto;html=1;strokeColor=default;align=center;verticalAlign=middle;fontFamily=Helvetica;fontSize=11;fontColor=default;labelBackgroundColor=default;endArrow=none;endFill=0;" edge="1" parent="1" source="Tw8KaSyfvmo2YHTZOB27-75">
          <mxGeometry relative="1" as="geometry">
            <mxPoint x="179" y="418" as="targetPoint" />
          </mxGeometry>
        </mxCell>
        <mxCell id="Tw8KaSyfvmo2YHTZOB27-88" style="edgeStyle=none;shape=connector;rounded=0;orthogonalLoop=1;jettySize=auto;html=1;strokeColor=default;align=center;verticalAlign=middle;fontFamily=Helvetica;fontSize=11;fontColor=default;labelBackgroundColor=default;endArrow=none;endFill=0;" edge="1" parent="1" source="Tw8KaSyfvmo2YHTZOB27-85" target="Tw8KaSyfvmo2YHTZOB27-24">
          <mxGeometry relative="1" as="geometry" />
        </mxCell>
        <mxCell id="Tw8KaSyfvmo2YHTZOB27-91" value="0:N" style="edgeLabel;html=1;align=center;verticalAlign=middle;resizable=0;points=[];fontFamily=Helvetica;fontSize=11;fontColor=default;labelBackgroundColor=default;" vertex="1" connectable="0" parent="Tw8KaSyfvmo2YHTZOB27-88">
          <mxGeometry x="-0.704" y="-1" relative="1" as="geometry">
            <mxPoint x="14" as="offset" />
          </mxGeometry>
        </mxCell>
        <mxCell id="Tw8KaSyfvmo2YHTZOB27-85" value="FECHA" style="rounded=1;arcSize=10;whiteSpace=wrap;html=1;align=center;fillColor=#d5e8d4;strokeColor=#82b366;" vertex="1" parent="1">
          <mxGeometry x="291" y="59.81" width="100" height="40" as="geometry" />
        </mxCell>
        <mxCell id="Tw8KaSyfvmo2YHTZOB27-89" style="edgeStyle=none;shape=connector;rounded=0;orthogonalLoop=1;jettySize=auto;html=1;strokeColor=default;align=center;verticalAlign=middle;fontFamily=Helvetica;fontSize=11;fontColor=default;labelBackgroundColor=default;endArrow=none;endFill=0;" edge="1" parent="1" source="Tw8KaSyfvmo2YHTZOB27-86" target="Tw8KaSyfvmo2YHTZOB27-85">
          <mxGeometry relative="1" as="geometry" />
        </mxCell>
        <mxCell id="Tw8KaSyfvmo2YHTZOB27-86" value="fecha" style="ellipse;whiteSpace=wrap;html=1;fontFamily=Helvetica;fontSize=11;fontColor=default;labelBackgroundColor=default;fontStyle=4" vertex="1" parent="1">
          <mxGeometry x="276" y="24.810000000000002" width="60" height="26" as="geometry" />
        </mxCell>
        <mxCell id="Tw8KaSyfvmo2YHTZOB27-90" style="edgeStyle=none;shape=connector;rounded=0;orthogonalLoop=1;jettySize=auto;html=1;strokeColor=default;align=center;verticalAlign=middle;fontFamily=Helvetica;fontSize=11;fontColor=default;labelBackgroundColor=default;endArrow=none;endFill=0;" edge="1" parent="1" source="Tw8KaSyfvmo2YHTZOB27-87" target="Tw8KaSyfvmo2YHTZOB27-85">
          <mxGeometry relative="1" as="geometry" />
        </mxCell>
        <mxCell id="Tw8KaSyfvmo2YHTZOB27-87" value="hora" style="ellipse;whiteSpace=wrap;html=1;fontFamily=Helvetica;fontSize=11;fontColor=default;labelBackgroundColor=default;fontStyle=4" vertex="1" parent="1">
          <mxGeometry x="351" y="24.810000000000002" width="60" height="26" as="geometry" />
        </mxCell>
        <mxCell id="9-Ztib7f6e9Ifwx9d5N6-27" style="rounded=0;orthogonalLoop=1;jettySize=auto;html=1;endArrow=none;endFill=0;" edge="1" parent="1" source="9-Ztib7f6e9Ifwx9d5N6-21" target="Tw8KaSyfvmo2YHTZOB27-32">
          <mxGeometry relative="1" as="geometry" />
        </mxCell>
        <mxCell id="9-Ztib7f6e9Ifwx9d5N6-21" value="&lt;u&gt;codigo&lt;/u&gt;" style="ellipse;whiteSpace=wrap;html=1;align=center;fontStyle=0" vertex="1" parent="1">
          <mxGeometry x="756" y="381.5" width="77" height="34" as="geometry" />
        </mxCell>
        <mxCell id="9-Ztib7f6e9Ifwx9d5N6-28" style="rounded=0;orthogonalLoop=1;jettySize=auto;html=1;endArrow=none;endFill=0;" edge="1" parent="1" source="9-Ztib7f6e9Ifwx9d5N6-22" target="Tw8KaSyfvmo2YHTZOB27-32">
          <mxGeometry relative="1" as="geometry" />
        </mxCell>
        <mxCell id="9-Ztib7f6e9Ifwx9d5N6-22" value="nombre" style="ellipse;whiteSpace=wrap;html=1;align=center;fontStyle=0" vertex="1" parent="1">
          <mxGeometry x="840" y="382.5" width="76" height="32" as="geometry" />
        </mxCell>
        <mxCell id="GNrPG53P7MBCp1ATSE61-15" style="edgeStyle=none;shape=connector;rounded=0;orthogonalLoop=1;jettySize=auto;html=1;strokeColor=default;align=center;verticalAlign=middle;fontFamily=Helvetica;fontSize=11;fontColor=default;labelBackgroundColor=default;endArrow=none;endFill=0;" edge="1" parent="1" source="9-Ztib7f6e9Ifwx9d5N6-24" target="Tw8KaSyfvmo2YHTZOB27-31">
          <mxGeometry relative="1" as="geometry" />
        </mxCell>
        <mxCell id="9-Ztib7f6e9Ifwx9d5N6-24" value="&lt;div&gt;usuario&lt;/div&gt;" style="ellipse;whiteSpace=wrap;html=1;align=center;fontStyle=4" vertex="1" parent="1">
          <mxGeometry x="228" y="309" width="74" height="29" as="geometry" />
        </mxCell>
        <mxCell id="9-Ztib7f6e9Ifwx9d5N6-30" style="rounded=0;orthogonalLoop=1;jettySize=auto;html=1;endArrow=none;endFill=0;" edge="1" parent="1" source="9-Ztib7f6e9Ifwx9d5N6-25" target="Tw8KaSyfvmo2YHTZOB27-37">
          <mxGeometry relative="1" as="geometry">
            <mxPoint x="661" y="558" as="sourcePoint" />
            <mxPoint x="598" y="497" as="targetPoint" />
          </mxGeometry>
        </mxCell>
        <mxCell id="9-Ztib7f6e9Ifwx9d5N6-25" value="&lt;div&gt;metros&lt;/div&gt;&lt;div&gt;cuadrados&lt;/div&gt;" style="ellipse;whiteSpace=wrap;html=1;align=center;fontStyle=0" vertex="1" parent="1">
          <mxGeometry x="551" y="379.5" width="103" height="38" as="geometry" />
        </mxCell>
        <mxCell id="9-Ztib7f6e9Ifwx9d5N6-31" style="rounded=0;orthogonalLoop=1;jettySize=auto;html=1;endArrow=none;endFill=0;" edge="1" parent="1" source="9-Ztib7f6e9Ifwx9d5N6-26" target="Tw8KaSyfvmo2YHTZOB27-37">
          <mxGeometry relative="1" as="geometry" />
        </mxCell>
        <mxCell id="9-Ztib7f6e9Ifwx9d5N6-26" value="precio" style="ellipse;whiteSpace=wrap;html=1;align=center;fontStyle=0" vertex="1" parent="1">
          <mxGeometry x="489" y="356" width="70" height="29" as="geometry" />
        </mxCell>
        <mxCell id="GNrPG53P7MBCp1ATSE61-1" value="FECHA" style="rounded=1;arcSize=10;whiteSpace=wrap;html=1;align=center;fillColor=#d5e8d4;strokeColor=#82b366;" vertex="1" parent="1">
          <mxGeometry x="-209" y="285" width="100" height="40" as="geometry" />
        </mxCell>
        <mxCell id="GNrPG53P7MBCp1ATSE61-8" style="edgeStyle=none;shape=connector;rounded=0;orthogonalLoop=1;jettySize=auto;html=1;strokeColor=default;align=center;verticalAlign=middle;fontFamily=Helvetica;fontSize=11;fontColor=default;labelBackgroundColor=default;endArrow=none;endFill=0;" edge="1" parent="1" source="GNrPG53P7MBCp1ATSE61-5" target="GNrPG53P7MBCp1ATSE61-1">
          <mxGeometry relative="1" as="geometry" />
        </mxCell>
        <mxCell id="GNrPG53P7MBCp1ATSE61-5" value="fecha" style="ellipse;whiteSpace=wrap;html=1;fontFamily=Helvetica;fontSize=11;fontColor=default;labelBackgroundColor=default;fontStyle=4" vertex="1" parent="1">
          <mxGeometry x="-221" y="250" width="60" height="26" as="geometry" />
        </mxCell>
        <mxCell id="GNrPG53P7MBCp1ATSE61-7" style="edgeStyle=none;shape=connector;rounded=0;orthogonalLoop=1;jettySize=auto;html=1;strokeColor=default;align=center;verticalAlign=middle;fontFamily=Helvetica;fontSize=11;fontColor=default;labelBackgroundColor=default;endArrow=none;endFill=0;" edge="1" parent="1" source="GNrPG53P7MBCp1ATSE61-6" target="GNrPG53P7MBCp1ATSE61-1">
          <mxGeometry relative="1" as="geometry" />
        </mxCell>
        <mxCell id="GNrPG53P7MBCp1ATSE61-6" value="hora" style="ellipse;whiteSpace=wrap;html=1;fontFamily=Helvetica;fontSize=11;fontColor=default;labelBackgroundColor=default;fontStyle=4" vertex="1" parent="1">
          <mxGeometry x="-146" y="250" width="60" height="26" as="geometry" />
        </mxCell>
        <mxCell id="GNrPG53P7MBCp1ATSE61-9" value="numero" style="ellipse;whiteSpace=wrap;html=1;align=center;fontStyle=4" vertex="1" parent="1">
          <mxGeometry x="442" y="399" width="74" height="34" as="geometry" />
        </mxCell>
        <mxCell id="GNrPG53P7MBCp1ATSE61-14" style="edgeStyle=none;shape=connector;rounded=0;orthogonalLoop=1;jettySize=auto;html=1;strokeColor=default;align=center;verticalAlign=middle;fontFamily=Helvetica;fontSize=11;fontColor=default;labelBackgroundColor=default;endArrow=none;endFill=0;" edge="1" parent="1" source="GNrPG53P7MBCp1ATSE61-10" target="Tw8KaSyfvmo2YHTZOB27-31">
          <mxGeometry relative="1" as="geometry" />
        </mxCell>
        <mxCell id="GNrPG53P7MBCp1ATSE61-10" value="contraseña" style="ellipse;whiteSpace=wrap;html=1;align=center;fontStyle=0" vertex="1" parent="1">
          <mxGeometry x="319" y="351" width="74" height="34" as="geometry" />
        </mxCell>
        <mxCell id="GNrPG53P7MBCp1ATSE61-12" style="edgeStyle=none;shape=connector;rounded=0;orthogonalLoop=1;jettySize=auto;html=1;strokeColor=default;align=center;verticalAlign=middle;fontFamily=Helvetica;fontSize=11;fontColor=default;labelBackgroundColor=default;endArrow=none;endFill=0;" edge="1" parent="1" source="GNrPG53P7MBCp1ATSE61-11" target="Tw8KaSyfvmo2YHTZOB27-31">
          <mxGeometry relative="1" as="geometry" />
        </mxCell>
        <mxCell id="GNrPG53P7MBCp1ATSE61-11" value="DNI" style="ellipse;whiteSpace=wrap;html=1;align=center;fontStyle=0" vertex="1" parent="1">
          <mxGeometry x="269" y="381.5" width="54" height="27" as="geometry" />
        </mxCell>
        <mxCell id="GNrPG53P7MBCp1ATSE61-17" style="edgeStyle=none;shape=connector;rounded=0;orthogonalLoop=1;jettySize=auto;html=1;strokeColor=default;align=center;verticalAlign=middle;fontFamily=Helvetica;fontSize=11;fontColor=default;labelBackgroundColor=default;endArrow=none;endFill=0;" edge="1" parent="1" source="GNrPG53P7MBCp1ATSE61-16" target="Tw8KaSyfvmo2YHTZOB27-31">
          <mxGeometry relative="1" as="geometry" />
        </mxCell>
        <mxCell id="GNrPG53P7MBCp1ATSE61-16" value="nombre" style="ellipse;whiteSpace=wrap;html=1;align=center;fontStyle=0" vertex="1" parent="1">
          <mxGeometry x="62" y="302" width="74" height="34" as="geometry" />
        </mxCell>
        <mxCell id="GNrPG53P7MBCp1ATSE61-23" style="edgeStyle=none;shape=connector;rounded=0;orthogonalLoop=1;jettySize=auto;html=1;strokeColor=default;align=center;verticalAlign=middle;fontFamily=Helvetica;fontSize=11;fontColor=default;labelBackgroundColor=default;endArrow=none;endFill=0;" edge="1" parent="1" source="GNrPG53P7MBCp1ATSE61-22" target="Tw8KaSyfvmo2YHTZOB27-31">
          <mxGeometry relative="1" as="geometry" />
        </mxCell>
        <mxCell id="GNrPG53P7MBCp1ATSE61-22" value="apellido" style="ellipse;whiteSpace=wrap;html=1;align=center;fontStyle=0" vertex="1" parent="1">
          <mxGeometry x="26" y="336" width="74" height="34" as="geometry" />
        </mxCell>
        <mxCell id="GNrPG53P7MBCp1ATSE61-25" style="edgeStyle=none;shape=connector;rounded=0;orthogonalLoop=1;jettySize=auto;html=1;strokeColor=default;align=center;verticalAlign=middle;fontFamily=Helvetica;fontSize=11;fontColor=default;labelBackgroundColor=default;endArrow=none;endFill=0;" edge="1" parent="1" source="GNrPG53P7MBCp1ATSE61-24" target="Tw8KaSyfvmo2YHTZOB27-31">
          <mxGeometry relative="1" as="geometry" />
        </mxCell>
        <mxCell id="GNrPG53P7MBCp1ATSE61-24" value="nacimiento" style="ellipse;whiteSpace=wrap;html=1;align=center;fontStyle=0" vertex="1" parent="1">
          <mxGeometry x="33" y="376" width="74" height="34" as="geometry" />
        </mxCell>
        <mxCell id="GNrPG53P7MBCp1ATSE61-27" style="edgeStyle=none;shape=connector;rounded=0;orthogonalLoop=1;jettySize=auto;html=1;strokeColor=default;align=center;verticalAlign=middle;fontFamily=Helvetica;fontSize=11;fontColor=default;labelBackgroundColor=default;endArrow=none;endFill=0;" edge="1" parent="1" source="GNrPG53P7MBCp1ATSE61-26" target="Tw8KaSyfvmo2YHTZOB27-31">
          <mxGeometry relative="1" as="geometry" />
        </mxCell>
        <mxCell id="GNrPG53P7MBCp1ATSE61-26" value="correo" style="ellipse;whiteSpace=wrap;html=1;align=center;fontStyle=0" vertex="1" parent="1">
          <mxGeometry x="310" y="316.5" width="60" height="28.5" as="geometry" />
        </mxCell>
      </root>
    </mxGraphModel>
  </diagram>
</mxfile>
